<mxfile host="65bd71144e">
    <diagram id="ZkHXTnjfa1Js3nJ25FPp" name="第 1 页">
        <mxGraphModel dx="1469" dy="773" grid="1" gridSize="10" guides="1" tooltips="1" connect="1" arrows="1" fold="1" page="1" pageScale="1" pageWidth="827" pageHeight="1169" background="none" math="0" shadow="0">
            <root>
                <mxCell id="0"/>
                <mxCell id="1" parent="0"/>
                <mxCell id="2" value="前端" style="rounded=0;whiteSpace=wrap;html=1;sketch=1;curveFitting=1;jiggle=2;" parent="1" vertex="1">
                    <mxGeometry x="135" y="60" width="90" height="40" as="geometry"/>
                </mxCell>
                <mxCell id="3" value="后端" style="rounded=0;whiteSpace=wrap;html=1;sketch=1;curveFitting=1;jiggle=2;" parent="1" vertex="1">
                    <mxGeometry x="555" y="60" width="90" height="40" as="geometry"/>
                </mxCell>
                <mxCell id="4" value="" style="endArrow=none;dashed=1;html=1;sketch=1;curveFitting=1;jiggle=2;" parent="1" edge="1">
                    <mxGeometry width="50" height="50" relative="1" as="geometry">
                        <mxPoint x="390" y="1071" as="sourcePoint"/>
                        <mxPoint x="390" as="targetPoint"/>
                    </mxGeometry>
                </mxCell>
                <mxCell id="5" value="db" style="shape=cylinder3;whiteSpace=wrap;html=1;boundedLbl=1;backgroundOutline=1;size=15;sketch=1;curveFitting=1;jiggle=2;" parent="1" vertex="1">
                    <mxGeometry x="1270" y="385" width="60" height="80" as="geometry"/>
                </mxCell>
                <mxCell id="6" value="" style="rounded=0;whiteSpace=wrap;html=1;sketch=1;curveFitting=1;jiggle=2;" parent="1" vertex="1">
                    <mxGeometry x="-210" y="110" width="550" height="950" as="geometry"/>
                </mxCell>
                <mxCell id="80" style="edgeStyle=none;html=1;entryX=1;entryY=0.5;entryDx=0;entryDy=0;exitX=0;exitY=0.612;exitDx=0;exitDy=0;exitPerimeter=0;sketch=1;curveFitting=1;jiggle=2;" parent="1" source="7" target="37" edge="1">
                    <mxGeometry relative="1" as="geometry">
                        <mxPoint x="440" y="473" as="sourcePoint"/>
                    </mxGeometry>
                </mxCell>
                <mxCell id="81" value="申请使用" style="edgeLabel;html=1;align=center;verticalAlign=middle;resizable=0;points=[];sketch=1;curveFitting=1;jiggle=2;" parent="80" vertex="1" connectable="0">
                    <mxGeometry x="0.2" y="2" relative="1" as="geometry">
                        <mxPoint as="offset"/>
                    </mxGeometry>
                </mxCell>
                <mxCell id="7" value="" style="rounded=0;whiteSpace=wrap;html=1;sketch=1;curveFitting=1;jiggle=2;" parent="1" vertex="1">
                    <mxGeometry x="440" y="110" width="320" height="670" as="geometry"/>
                </mxCell>
                <mxCell id="9" value="登录接口" style="rounded=0;whiteSpace=wrap;html=1;sketch=1;curveFitting=1;jiggle=2;" parent="1" vertex="1">
                    <mxGeometry x="540" y="130" width="120" height="70" as="geometry"/>
                </mxCell>
                <mxCell id="18" value="" style="edgeStyle=none;html=1;sketch=1;curveFitting=1;jiggle=2;" parent="1" source="10" target="17" edge="1">
                    <mxGeometry relative="1" as="geometry"/>
                </mxCell>
                <mxCell id="10" value="登录模块" style="rounded=0;whiteSpace=wrap;html=1;sketch=1;curveFitting=1;jiggle=2;" parent="1" vertex="1">
                    <mxGeometry x="120" y="130" width="120" height="70" as="geometry"/>
                </mxCell>
                <mxCell id="29" style="edgeStyle=none;html=1;exitX=0;exitY=0.5;exitDx=0;exitDy=0;entryX=0;entryY=0.5;entryDx=0;entryDy=0;sketch=1;curveFitting=1;jiggle=2;" parent="1" source="17" target="10" edge="1">
                    <mxGeometry relative="1" as="geometry">
                        <Array as="points">
                            <mxPoint x="50" y="255"/>
                            <mxPoint x="50" y="165"/>
                        </Array>
                    </mxGeometry>
                </mxCell>
                <mxCell id="34" value="未知" style="edgeLabel;html=1;align=center;verticalAlign=middle;resizable=0;points=[];sketch=1;curveFitting=1;jiggle=2;" parent="29" vertex="1" connectable="0">
                    <mxGeometry x="0.0326" relative="1" as="geometry">
                        <mxPoint as="offset"/>
                    </mxGeometry>
                </mxCell>
                <mxCell id="32" style="edgeStyle=none;html=1;exitX=0.5;exitY=1;exitDx=0;exitDy=0;entryX=0.5;entryY=0;entryDx=0;entryDy=0;sketch=1;curveFitting=1;jiggle=2;" parent="1" source="17" target="30" edge="1">
                    <mxGeometry relative="1" as="geometry">
                        <Array as="points">
                            <mxPoint x="90" y="280"/>
                        </Array>
                    </mxGeometry>
                </mxCell>
                <mxCell id="36" value="谢" style="edgeLabel;html=1;align=center;verticalAlign=middle;resizable=0;points=[];sketch=1;curveFitting=1;jiggle=2;" parent="32" vertex="1" connectable="0">
                    <mxGeometry x="0.1455" y="3" relative="1" as="geometry">
                        <mxPoint as="offset"/>
                    </mxGeometry>
                </mxCell>
                <mxCell id="35" value="王" style="edgeStyle=none;html=1;exitX=1;exitY=0.5;exitDx=0;exitDy=0;entryX=0.5;entryY=0;entryDx=0;entryDy=0;sketch=1;curveFitting=1;jiggle=2;" parent="1" source="17" target="31" edge="1">
                    <mxGeometry relative="1" as="geometry">
                        <Array as="points">
                            <mxPoint x="290" y="255"/>
                            <mxPoint x="290" y="280"/>
                            <mxPoint x="250" y="280"/>
                        </Array>
                    </mxGeometry>
                </mxCell>
                <mxCell id="17" value="当前用户是谁？" style="rhombus;whiteSpace=wrap;html=1;sketch=1;curveFitting=1;jiggle=2;" parent="1" vertex="1">
                    <mxGeometry x="105" y="230" width="150" height="50" as="geometry"/>
                </mxCell>
                <mxCell id="23" value="" style="endArrow=classic;html=1;exitX=1;exitY=0.25;exitDx=0;exitDy=0;entryX=0;entryY=0.25;entryDx=0;entryDy=0;sketch=1;curveFitting=1;jiggle=2;" parent="1" source="10" target="9" edge="1">
                    <mxGeometry relative="1" as="geometry">
                        <mxPoint x="360" y="380" as="sourcePoint"/>
                        <mxPoint x="460" y="380" as="targetPoint"/>
                    </mxGeometry>
                </mxCell>
                <mxCell id="24" value="" style="shape=message;html=1;outlineConnect=0;sketch=1;curveFitting=1;jiggle=2;" parent="23" vertex="1">
                    <mxGeometry width="20" height="14" relative="1" as="geometry">
                        <mxPoint x="-10" y="-7" as="offset"/>
                    </mxGeometry>
                </mxCell>
                <mxCell id="25" value="用户输入账号密码" style="edgeLabel;html=1;align=center;verticalAlign=middle;resizable=0;points=[];sketch=1;curveFitting=1;jiggle=2;" parent="23" vertex="1" connectable="0">
                    <mxGeometry x="-0.4267" relative="1" as="geometry">
                        <mxPoint y="1" as="offset"/>
                    </mxGeometry>
                </mxCell>
                <mxCell id="26" value="" style="endArrow=classic;html=1;exitX=0;exitY=0.75;exitDx=0;exitDy=0;entryX=1;entryY=0.75;entryDx=0;entryDy=0;sketch=1;curveFitting=1;jiggle=2;" parent="1" source="9" target="10" edge="1">
                    <mxGeometry relative="1" as="geometry">
                        <mxPoint x="360" y="380" as="sourcePoint"/>
                        <mxPoint x="460" y="380" as="targetPoint"/>
                    </mxGeometry>
                </mxCell>
                <mxCell id="27" value="" style="shape=message;html=1;outlineConnect=0;sketch=1;curveFitting=1;jiggle=2;" parent="26" vertex="1">
                    <mxGeometry width="20" height="14" relative="1" as="geometry">
                        <mxPoint x="-10" y="-7" as="offset"/>
                    </mxGeometry>
                </mxCell>
                <mxCell id="28" value="返回token，用户信息" style="edgeLabel;html=1;align=center;verticalAlign=middle;resizable=0;points=[];sketch=1;curveFitting=1;jiggle=2;" parent="26" vertex="1" connectable="0">
                    <mxGeometry x="-0.5267" relative="1" as="geometry">
                        <mxPoint as="offset"/>
                    </mxGeometry>
                </mxCell>
                <mxCell id="38" style="edgeStyle=none;html=1;exitX=0.5;exitY=1;exitDx=0;exitDy=0;entryX=0.5;entryY=0;entryDx=0;entryDy=0;sketch=1;curveFitting=1;jiggle=2;" parent="1" source="30" target="37" edge="1">
                    <mxGeometry relative="1" as="geometry"/>
                </mxCell>
                <mxCell id="93" style="edgeStyle=none;html=1;exitX=0;exitY=0.5;exitDx=0;exitDy=0;entryX=0.5;entryY=0;entryDx=0;entryDy=0;sketch=1;curveFitting=1;jiggle=2;" parent="1" source="30" target="92" edge="1">
                    <mxGeometry relative="1" as="geometry">
                        <Array as="points">
                            <mxPoint x="-110" y="330"/>
                        </Array>
                    </mxGeometry>
                </mxCell>
                <mxCell id="30" value="谢 操作界面" style="rounded=0;whiteSpace=wrap;html=1;sketch=1;curveFitting=1;jiggle=2;" parent="1" vertex="1">
                    <mxGeometry x="30" y="300" width="120" height="60" as="geometry"/>
                </mxCell>
                <mxCell id="45" style="edgeStyle=none;html=1;exitX=0.5;exitY=1;exitDx=0;exitDy=0;entryX=0.5;entryY=0;entryDx=0;entryDy=0;sketch=1;curveFitting=1;jiggle=2;" parent="1" source="31" target="44" edge="1">
                    <mxGeometry relative="1" as="geometry"/>
                </mxCell>
                <mxCell id="31" value="王 操作界面" style="rounded=0;whiteSpace=wrap;html=1;sketch=1;curveFitting=1;jiggle=2;" parent="1" vertex="1">
                    <mxGeometry x="190" y="300" width="120" height="60" as="geometry"/>
                </mxCell>
                <mxCell id="85" value="" style="edgeStyle=none;html=1;sketch=1;curveFitting=1;jiggle=2;" parent="1" source="37" edge="1">
                    <mxGeometry relative="1" as="geometry">
                        <mxPoint x="90" y="580" as="targetPoint"/>
                    </mxGeometry>
                </mxCell>
                <mxCell id="37" value="消费券申请审批模块" style="rounded=0;whiteSpace=wrap;html=1;sketch=1;curveFitting=1;jiggle=2;" parent="1" vertex="1">
                    <mxGeometry x="30" y="490" width="120" height="65" as="geometry"/>
                </mxCell>
                <mxCell id="39" value="消费券新增接口&lt;span style=&quot;color: rgba(0, 0, 0, 0); font-family: monospace; font-size: 0px; text-align: start;&quot;&gt;%3CmxGraphModel%3E%3Croot%3E%3CmxCell%20id%3D%220%22%2F%3E%3CmxCell%20id%3D%221%22%20parent%3D%220%22%2F%3E%3CmxCell%20id%3D%222%22%20value%3D%22%E5%BD%93%E5%89%8D%E7%94%A8%E6%88%B7%E6%98%AF%E8%B0%81%EF%BC%9F%22%20style%3D%22rhombus%3BwhiteSpace%3Dwrap%3Bhtml%3D1%3B%22%20vertex%3D%221%22%20parent%3D%221%22%3E%3CmxGeometry%20x%3D%22105%22%20y%3D%22230%22%20width%3D%22150%22%20height%3D%2250%22%20as%3D%22geometry%22%2F%3E%3C%2FmxCell%3E%3C%2Froot%3E%3C%2FmxGraphModel%3E&lt;/span&gt;" style="rounded=0;whiteSpace=wrap;html=1;sketch=1;curveFitting=1;jiggle=2;" parent="1" vertex="1">
                    <mxGeometry x="540" y="280" width="120" height="30" as="geometry"/>
                </mxCell>
                <mxCell id="43" value="" style="endArrow=classic;startArrow=classic;html=1;exitX=1;exitY=0.5;exitDx=0;exitDy=0;sketch=1;curveFitting=1;jiggle=2;" parent="1" source="9" edge="1">
                    <mxGeometry width="50" height="50" relative="1" as="geometry">
                        <mxPoint x="730" y="180" as="sourcePoint"/>
                        <mxPoint x="830" y="165" as="targetPoint"/>
                    </mxGeometry>
                </mxCell>
                <mxCell id="78" style="edgeStyle=none;html=1;exitX=1;exitY=0.25;exitDx=0;exitDy=0;entryX=-0.009;entryY=0.443;entryDx=0;entryDy=0;entryPerimeter=0;sketch=1;curveFitting=1;jiggle=2;" parent="1" source="44" target="7" edge="1">
                    <mxGeometry relative="1" as="geometry"/>
                </mxCell>
                <mxCell id="79" value="申请使用" style="edgeLabel;html=1;align=center;verticalAlign=middle;resizable=0;points=[];sketch=1;curveFitting=1;jiggle=2;" parent="78" vertex="1" connectable="0">
                    <mxGeometry x="-0.1975" y="1" relative="1" as="geometry">
                        <mxPoint as="offset"/>
                    </mxGeometry>
                </mxCell>
                <mxCell id="44" value="消费券使用界面" style="rounded=0;whiteSpace=wrap;html=1;sketch=1;curveFitting=1;jiggle=2;" parent="1" vertex="1">
                    <mxGeometry x="190" y="390" width="120" height="70" as="geometry"/>
                </mxCell>
                <mxCell id="46" value="消费券列表查询接口" style="rounded=0;whiteSpace=wrap;html=1;sketch=1;curveFitting=1;jiggle=2;" parent="1" vertex="1">
                    <mxGeometry x="540" y="225" width="120" height="35" as="geometry"/>
                </mxCell>
                <mxCell id="49" value="消费券list表" style="shape=table;startSize=30;container=1;collapsible=0;childLayout=tableLayout;fontStyle=0;align=center;labelPadding=0;sketch=1;curveFitting=1;jiggle=2;labelBackgroundColor=default;fillColor=#1ba1e2;fontColor=#ffffff;strokeColor=#006EAF;" parent="1" vertex="1">
                    <mxGeometry x="870" y="210" width="250" height="205" as="geometry"/>
                </mxCell>
                <mxCell id="50" value="" style="shape=tableRow;horizontal=0;startSize=0;swimlaneHead=0;swimlaneBody=0;top=0;left=0;bottom=0;right=0;collapsible=0;dropTarget=0;fillColor=none;points=[[0,0.5],[1,0.5]];portConstraint=eastwest;sketch=1;curveFitting=1;jiggle=2;fontStyle=0;align=center;" parent="49" vertex="1">
                    <mxGeometry y="30" width="250" height="58" as="geometry"/>
                </mxCell>
                <mxCell id="51" value="创建时间" style="shape=partialRectangle;html=1;whiteSpace=wrap;connectable=0;fillColor=none;top=0;left=0;bottom=0;right=0;overflow=hidden;sketch=1;curveFitting=1;jiggle=2;fontStyle=0;align=center;" parent="50" vertex="1">
                    <mxGeometry width="83" height="58" as="geometry">
                        <mxRectangle width="83" height="58" as="alternateBounds"/>
                    </mxGeometry>
                </mxCell>
                <mxCell id="52" value="消费券分发原因" style="shape=partialRectangle;html=1;whiteSpace=wrap;connectable=0;fillColor=none;top=0;left=0;bottom=0;right=0;overflow=hidden;sketch=1;curveFitting=1;jiggle=2;fontStyle=0;align=center;" parent="50" vertex="1">
                    <mxGeometry x="83" width="84" height="58" as="geometry">
                        <mxRectangle width="84" height="58" as="alternateBounds"/>
                    </mxGeometry>
                </mxCell>
                <mxCell id="53" value="是否删除" style="shape=partialRectangle;html=1;whiteSpace=wrap;connectable=0;fillColor=none;top=0;left=0;bottom=0;right=0;overflow=hidden;sketch=1;curveFitting=1;jiggle=2;fontStyle=0;align=center;" parent="50" vertex="1">
                    <mxGeometry x="167" width="83" height="58" as="geometry">
                        <mxRectangle width="83" height="58" as="alternateBounds"/>
                    </mxGeometry>
                </mxCell>
                <mxCell id="54" value="" style="shape=tableRow;horizontal=0;startSize=0;swimlaneHead=0;swimlaneBody=0;top=0;left=0;bottom=0;right=0;collapsible=0;dropTarget=0;fillColor=none;points=[[0,0.5],[1,0.5]];portConstraint=eastwest;sketch=1;curveFitting=1;jiggle=2;fontStyle=0;align=center;" parent="49" vertex="1">
                    <mxGeometry y="88" width="250" height="59" as="geometry"/>
                </mxCell>
                <mxCell id="55" value="创建人" style="shape=partialRectangle;html=1;whiteSpace=wrap;connectable=0;fillColor=none;top=0;left=0;bottom=0;right=0;overflow=hidden;sketch=1;curveFitting=1;jiggle=2;fontStyle=0;align=center;" parent="54" vertex="1">
                    <mxGeometry width="83" height="59" as="geometry">
                        <mxRectangle width="83" height="59" as="alternateBounds"/>
                    </mxGeometry>
                </mxCell>
                <mxCell id="56" value="消费券水印|专属图片" style="shape=partialRectangle;html=1;whiteSpace=wrap;connectable=0;fillColor=none;top=0;left=0;bottom=0;right=0;overflow=hidden;sketch=1;curveFitting=1;jiggle=2;fontStyle=0;align=center;" parent="54" vertex="1">
                    <mxGeometry x="83" width="84" height="59" as="geometry">
                        <mxRectangle width="84" height="59" as="alternateBounds"/>
                    </mxGeometry>
                </mxCell>
                <mxCell id="57" value="是否正在申请使用" style="shape=partialRectangle;html=1;whiteSpace=wrap;connectable=0;fillColor=none;top=0;left=0;bottom=0;right=0;overflow=hidden;sketch=1;curveFitting=1;jiggle=2;fontStyle=0;align=center;" parent="54" vertex="1">
                    <mxGeometry x="167" width="83" height="59" as="geometry">
                        <mxRectangle width="83" height="59" as="alternateBounds"/>
                    </mxGeometry>
                </mxCell>
                <mxCell id="58" value="" style="shape=tableRow;horizontal=0;startSize=0;swimlaneHead=0;swimlaneBody=0;top=0;left=0;bottom=0;right=0;collapsible=0;dropTarget=0;fillColor=none;points=[[0,0.5],[1,0.5]];portConstraint=eastwest;sketch=1;curveFitting=1;jiggle=2;fontStyle=0;align=center;" parent="49" vertex="1">
                    <mxGeometry y="147" width="250" height="58" as="geometry"/>
                </mxCell>
                <mxCell id="59" value="更新时间" style="shape=partialRectangle;html=1;whiteSpace=wrap;connectable=0;fillColor=none;top=0;left=0;bottom=0;right=0;overflow=hidden;sketch=1;curveFitting=1;jiggle=2;fontStyle=0;align=center;" parent="58" vertex="1">
                    <mxGeometry width="83" height="58" as="geometry">
                        <mxRectangle width="83" height="58" as="alternateBounds"/>
                    </mxGeometry>
                </mxCell>
                <mxCell id="60" value="是否作废" style="shape=partialRectangle;html=1;whiteSpace=wrap;connectable=0;fillColor=none;top=0;left=0;bottom=0;right=0;overflow=hidden;sketch=1;curveFitting=1;jiggle=2;fontStyle=0;align=center;" parent="58" vertex="1">
                    <mxGeometry x="83" width="84" height="58" as="geometry">
                        <mxRectangle width="84" height="58" as="alternateBounds"/>
                    </mxGeometry>
                </mxCell>
                <mxCell id="61" value="是否使用" style="shape=partialRectangle;html=1;whiteSpace=wrap;connectable=0;fillColor=none;top=0;left=0;bottom=0;right=0;overflow=hidden;sketch=1;curveFitting=1;jiggle=2;fontStyle=0;align=center;" parent="58" vertex="1">
                    <mxGeometry x="167" width="83" height="58" as="geometry">
                        <mxRectangle width="83" height="58" as="alternateBounds"/>
                    </mxGeometry>
                </mxCell>
                <mxCell id="62" value="用户表" style="shape=table;startSize=30;container=1;collapsible=0;childLayout=tableLayout;fontStyle=0;align=center;sketch=1;curveFitting=1;jiggle=2;fillColor=#fff2cc;strokeColor=#d6b656;" parent="1" vertex="1">
                    <mxGeometry x="870" y="450" width="250" height="200" as="geometry"/>
                </mxCell>
                <mxCell id="63" value="" style="shape=tableRow;horizontal=0;startSize=0;swimlaneHead=0;swimlaneBody=0;top=0;left=0;bottom=0;right=0;collapsible=0;dropTarget=0;fillColor=none;points=[[0,0.5],[1,0.5]];portConstraint=eastwest;sketch=1;curveFitting=1;jiggle=2;fontStyle=0;align=center;" parent="62" vertex="1">
                    <mxGeometry y="30" width="250" height="57" as="geometry"/>
                </mxCell>
                <mxCell id="64" value="创建时间" style="shape=partialRectangle;html=1;whiteSpace=wrap;connectable=0;fillColor=none;top=0;left=0;bottom=0;right=0;overflow=hidden;sketch=1;curveFitting=1;jiggle=2;fontStyle=0;align=center;" parent="63" vertex="1">
                    <mxGeometry width="83" height="57" as="geometry">
                        <mxRectangle width="83" height="57" as="alternateBounds"/>
                    </mxGeometry>
                </mxCell>
                <mxCell id="65" value="用户角色" style="shape=partialRectangle;html=1;whiteSpace=wrap;connectable=0;fillColor=none;top=0;left=0;bottom=0;right=0;overflow=hidden;sketch=1;curveFitting=1;jiggle=2;fontStyle=0;align=center;" parent="63" vertex="1">
                    <mxGeometry x="83" width="84" height="57" as="geometry">
                        <mxRectangle width="84" height="57" as="alternateBounds"/>
                    </mxGeometry>
                </mxCell>
                <mxCell id="66" value="" style="shape=partialRectangle;html=1;whiteSpace=wrap;connectable=0;fillColor=none;top=0;left=0;bottom=0;right=0;overflow=hidden;sketch=1;curveFitting=1;jiggle=2;fontStyle=0;align=center;" parent="63" vertex="1">
                    <mxGeometry x="167" width="83" height="57" as="geometry">
                        <mxRectangle width="83" height="57" as="alternateBounds"/>
                    </mxGeometry>
                </mxCell>
                <mxCell id="67" value="" style="shape=tableRow;horizontal=0;startSize=0;swimlaneHead=0;swimlaneBody=0;top=0;left=0;bottom=0;right=0;collapsible=0;dropTarget=0;fillColor=none;points=[[0,0.5],[1,0.5]];portConstraint=eastwest;sketch=1;curveFitting=1;jiggle=2;fontStyle=0;align=center;" parent="62" vertex="1">
                    <mxGeometry y="87" width="250" height="56" as="geometry"/>
                </mxCell>
                <mxCell id="68" value="用户姓名" style="shape=partialRectangle;html=1;whiteSpace=wrap;connectable=0;fillColor=none;top=0;left=0;bottom=0;right=0;overflow=hidden;sketch=1;curveFitting=1;jiggle=2;fontStyle=0;align=center;" parent="67" vertex="1">
                    <mxGeometry width="83" height="56" as="geometry">
                        <mxRectangle width="83" height="56" as="alternateBounds"/>
                    </mxGeometry>
                </mxCell>
                <mxCell id="69" value="是否删除" style="shape=partialRectangle;html=1;whiteSpace=wrap;connectable=0;fillColor=none;top=0;left=0;bottom=0;right=0;overflow=hidden;sketch=1;curveFitting=1;jiggle=2;fontStyle=0;align=center;" parent="67" vertex="1">
                    <mxGeometry x="83" width="84" height="56" as="geometry">
                        <mxRectangle width="84" height="56" as="alternateBounds"/>
                    </mxGeometry>
                </mxCell>
                <mxCell id="70" value="用户密码" style="shape=partialRectangle;html=1;whiteSpace=wrap;connectable=0;top=0;left=0;bottom=0;right=0;overflow=hidden;sketch=1;curveFitting=1;jiggle=2;fontStyle=0;align=center;" parent="67" vertex="1">
                    <mxGeometry x="167" width="83" height="56" as="geometry">
                        <mxRectangle width="83" height="56" as="alternateBounds"/>
                    </mxGeometry>
                </mxCell>
                <mxCell id="71" value="" style="shape=tableRow;horizontal=0;startSize=0;swimlaneHead=0;swimlaneBody=0;top=0;left=0;bottom=0;right=0;collapsible=0;dropTarget=0;fillColor=none;points=[[0,0.5],[1,0.5]];portConstraint=eastwest;sketch=1;curveFitting=1;jiggle=2;fontStyle=0;align=center;" parent="62" vertex="1">
                    <mxGeometry y="143" width="250" height="57" as="geometry"/>
                </mxCell>
                <mxCell id="72" value="用户昵称" style="shape=partialRectangle;html=1;whiteSpace=wrap;connectable=0;fillColor=none;top=0;left=0;bottom=0;right=0;overflow=hidden;sketch=1;curveFitting=1;jiggle=2;fontStyle=0;align=center;" parent="71" vertex="1">
                    <mxGeometry width="83" height="57" as="geometry">
                        <mxRectangle width="83" height="57" as="alternateBounds"/>
                    </mxGeometry>
                </mxCell>
                <mxCell id="73" value="更新时间" style="shape=partialRectangle;html=1;whiteSpace=wrap;connectable=0;fillColor=none;top=0;left=0;bottom=0;right=0;overflow=hidden;sketch=1;curveFitting=1;jiggle=2;fontStyle=0;align=center;" parent="71" vertex="1">
                    <mxGeometry x="83" width="84" height="57" as="geometry">
                        <mxRectangle width="84" height="57" as="alternateBounds"/>
                    </mxGeometry>
                </mxCell>
                <mxCell id="74" value="" style="shape=partialRectangle;html=1;whiteSpace=wrap;connectable=0;fillColor=none;top=0;left=0;bottom=0;right=0;overflow=hidden;sketch=1;curveFitting=1;jiggle=2;fontStyle=0;align=center;" parent="71" vertex="1">
                    <mxGeometry x="167" width="83" height="57" as="geometry">
                        <mxRectangle width="83" height="57" as="alternateBounds"/>
                    </mxGeometry>
                </mxCell>
                <mxCell id="88" style="edgeStyle=none;html=1;exitX=1;exitY=0.5;exitDx=0;exitDy=0;entryX=0.003;entryY=0.737;entryDx=0;entryDy=0;entryPerimeter=0;sketch=1;curveFitting=1;jiggle=2;" parent="1" source="86" target="7" edge="1">
                    <mxGeometry relative="1" as="geometry"/>
                </mxCell>
                <mxCell id="89" value="同意" style="edgeLabel;html=1;align=center;verticalAlign=middle;resizable=0;points=[];sketch=1;curveFitting=1;jiggle=2;" parent="88" vertex="1" connectable="0">
                    <mxGeometry x="-0.2028" y="-1" relative="1" as="geometry">
                        <mxPoint as="offset"/>
                    </mxGeometry>
                </mxCell>
                <mxCell id="90" style="edgeStyle=none;html=1;exitX=0.5;exitY=1;exitDx=0;exitDy=0;entryX=-0.003;entryY=0.833;entryDx=0;entryDy=0;entryPerimeter=0;sketch=1;curveFitting=1;jiggle=2;" parent="1" source="86" target="7" edge="1">
                    <mxGeometry relative="1" as="geometry">
                        <Array as="points">
                            <mxPoint x="90" y="670"/>
                        </Array>
                    </mxGeometry>
                </mxCell>
                <mxCell id="91" value="拒绝" style="edgeLabel;html=1;align=center;verticalAlign=middle;resizable=0;points=[];sketch=1;curveFitting=1;jiggle=2;" parent="90" vertex="1" connectable="0">
                    <mxGeometry x="-0.0131" y="-4" relative="1" as="geometry">
                        <mxPoint as="offset"/>
                    </mxGeometry>
                </mxCell>
                <mxCell id="86" value="是否同意使用" style="rhombus;whiteSpace=wrap;html=1;sketch=1;curveFitting=1;jiggle=2;" parent="1" vertex="1">
                    <mxGeometry x="15" y="580" width="150" height="50" as="geometry"/>
                </mxCell>
                <mxCell id="95" style="edgeStyle=none;html=1;exitX=0.5;exitY=1;exitDx=0;exitDy=0;entryX=0.006;entryY=0.934;entryDx=0;entryDy=0;entryPerimeter=0;sketch=1;curveFitting=1;jiggle=2;" parent="1" source="92" target="7" edge="1">
                    <mxGeometry relative="1" as="geometry">
                        <Array as="points">
                            <mxPoint x="-110" y="740"/>
                        </Array>
                    </mxGeometry>
                </mxCell>
                <mxCell id="101" value="增删改查" style="edgeLabel;html=1;align=center;verticalAlign=middle;resizable=0;points=[];sketch=1;curveFitting=1;jiggle=2;" parent="95" vertex="1" connectable="0">
                    <mxGeometry x="-0.2116" y="-1" relative="1" as="geometry">
                        <mxPoint as="offset"/>
                    </mxGeometry>
                </mxCell>
                <mxCell id="92" value="消费券信息填写模块" style="rounded=0;whiteSpace=wrap;html=1;sketch=1;curveFitting=1;jiggle=2;" parent="1" vertex="1">
                    <mxGeometry x="-170" y="492.5" width="120" height="60" as="geometry"/>
                </mxCell>
                <mxCell id="96" value="消费券删除接口" style="rounded=0;whiteSpace=wrap;html=1;sketch=1;curveFitting=1;jiggle=2;" parent="1" vertex="1">
                    <mxGeometry x="540" y="330" width="120" height="30" as="geometry"/>
                </mxCell>
                <mxCell id="97" value="消费券修改接口" style="rounded=0;whiteSpace=wrap;html=1;sketch=1;curveFitting=1;jiggle=2;" parent="1" vertex="1">
                    <mxGeometry x="540" y="380" width="120" height="30" as="geometry"/>
                </mxCell>
                <mxCell id="98" value="消费券申请使用接口" style="rounded=0;whiteSpace=wrap;html=1;sketch=1;curveFitting=1;jiggle=2;" parent="1" vertex="1">
                    <mxGeometry x="540" y="427.5" width="120" height="35" as="geometry"/>
                </mxCell>
                <mxCell id="99" value="消费券使用状态修改接口" style="rounded=0;whiteSpace=wrap;html=1;sketch=1;curveFitting=1;jiggle=2;" parent="1" vertex="1">
                    <mxGeometry x="540" y="480" width="120" height="30" as="geometry"/>
                </mxCell>
                <mxCell id="104" value="" style="endArrow=classic;startArrow=classic;html=1;exitX=1;exitY=0.5;exitDx=0;exitDy=0;entryX=0;entryY=0.331;entryDx=0;entryDy=0;entryPerimeter=0;sketch=1;curveFitting=1;jiggle=2;" parent="1" source="31" target="7" edge="1">
                    <mxGeometry width="50" height="50" relative="1" as="geometry">
                        <mxPoint x="360" y="520" as="sourcePoint"/>
                        <mxPoint x="410" y="470" as="targetPoint"/>
                    </mxGeometry>
                </mxCell>
                <mxCell id="105" value="ws双向通信" style="edgeLabel;html=1;align=center;verticalAlign=middle;resizable=0;points=[];sketch=1;curveFitting=1;jiggle=2;" parent="104" vertex="1" connectable="0">
                    <mxGeometry x="-0.1692" relative="1" as="geometry">
                        <mxPoint as="offset"/>
                    </mxGeometry>
                </mxCell>
                <mxCell id="106" value="权限表" style="shape=table;startSize=30;container=1;collapsible=0;childLayout=tableLayout;fontStyle=0;align=center;sketch=1;curveFitting=1;jiggle=2;fillColor=#fff2cc;strokeColor=#d6b656;" parent="1" vertex="1">
                    <mxGeometry x="870" y="690" width="250" height="200" as="geometry"/>
                </mxCell>
                <mxCell id="107" value="" style="shape=tableRow;horizontal=0;startSize=0;swimlaneHead=0;swimlaneBody=0;top=0;left=0;bottom=0;right=0;collapsible=0;dropTarget=0;fillColor=none;points=[[0,0.5],[1,0.5]];portConstraint=eastwest;sketch=1;curveFitting=1;jiggle=2;fontStyle=0;align=center;" parent="106" vertex="1">
                    <mxGeometry y="30" width="250" height="57" as="geometry"/>
                </mxCell>
                <mxCell id="108" value="创建时间" style="shape=partialRectangle;html=1;whiteSpace=wrap;connectable=0;fillColor=none;top=0;left=0;bottom=0;right=0;overflow=hidden;sketch=1;curveFitting=1;jiggle=2;fontStyle=0;align=center;" parent="107" vertex="1">
                    <mxGeometry width="83" height="57" as="geometry">
                        <mxRectangle width="83" height="57" as="alternateBounds"/>
                    </mxGeometry>
                </mxCell>
                <mxCell id="109" value="用户角色" style="shape=partialRectangle;html=1;whiteSpace=wrap;connectable=0;fillColor=none;top=0;left=0;bottom=0;right=0;overflow=hidden;sketch=1;curveFitting=1;jiggle=2;fontStyle=0;align=center;" parent="107" vertex="1">
                    <mxGeometry x="83" width="84" height="57" as="geometry">
                        <mxRectangle width="84" height="57" as="alternateBounds"/>
                    </mxGeometry>
                </mxCell>
                <mxCell id="110" value="" style="shape=partialRectangle;html=1;whiteSpace=wrap;connectable=0;fillColor=none;top=0;left=0;bottom=0;right=0;overflow=hidden;sketch=1;curveFitting=1;jiggle=2;fontStyle=0;align=center;" parent="107" vertex="1">
                    <mxGeometry x="167" width="83" height="57" as="geometry">
                        <mxRectangle width="83" height="57" as="alternateBounds"/>
                    </mxGeometry>
                </mxCell>
                <mxCell id="111" value="" style="shape=tableRow;horizontal=0;startSize=0;swimlaneHead=0;swimlaneBody=0;top=0;left=0;bottom=0;right=0;collapsible=0;dropTarget=0;fillColor=none;points=[[0,0.5],[1,0.5]];portConstraint=eastwest;sketch=1;curveFitting=1;jiggle=2;fontStyle=0;align=center;" parent="106" vertex="1">
                    <mxGeometry y="87" width="250" height="56" as="geometry"/>
                </mxCell>
                <mxCell id="112" value="更新时间" style="shape=partialRectangle;html=1;whiteSpace=wrap;connectable=0;fillColor=none;top=0;left=0;bottom=0;right=0;overflow=hidden;sketch=1;curveFitting=1;jiggle=2;fontStyle=0;align=center;" parent="111" vertex="1">
                    <mxGeometry width="83" height="56" as="geometry">
                        <mxRectangle width="83" height="56" as="alternateBounds"/>
                    </mxGeometry>
                </mxCell>
                <mxCell id="113" value="用户权限" style="shape=partialRectangle;html=1;whiteSpace=wrap;connectable=0;fillColor=none;top=0;left=0;bottom=0;right=0;overflow=hidden;sketch=1;curveFitting=1;jiggle=2;fontStyle=0;align=center;" parent="111" vertex="1">
                    <mxGeometry x="83" width="84" height="56" as="geometry">
                        <mxRectangle width="84" height="56" as="alternateBounds"/>
                    </mxGeometry>
                </mxCell>
                <mxCell id="114" value="" style="shape=partialRectangle;html=1;whiteSpace=wrap;connectable=0;top=0;left=0;bottom=0;right=0;overflow=hidden;sketch=1;curveFitting=1;jiggle=2;fontStyle=0;align=center;" parent="111" vertex="1">
                    <mxGeometry x="167" width="83" height="56" as="geometry">
                        <mxRectangle width="83" height="56" as="alternateBounds"/>
                    </mxGeometry>
                </mxCell>
                <mxCell id="115" value="" style="shape=tableRow;horizontal=0;startSize=0;swimlaneHead=0;swimlaneBody=0;top=0;left=0;bottom=0;right=0;collapsible=0;dropTarget=0;fillColor=none;points=[[0,0.5],[1,0.5]];portConstraint=eastwest;sketch=1;curveFitting=1;jiggle=2;fontStyle=0;align=center;" parent="106" vertex="1">
                    <mxGeometry y="143" width="250" height="57" as="geometry"/>
                </mxCell>
                <mxCell id="116" value="权限id" style="shape=partialRectangle;html=1;whiteSpace=wrap;connectable=0;fillColor=none;top=0;left=0;bottom=0;right=0;overflow=hidden;sketch=1;curveFitting=1;jiggle=2;fontStyle=0;align=center;" parent="115" vertex="1">
                    <mxGeometry width="83" height="57" as="geometry">
                        <mxRectangle width="83" height="57" as="alternateBounds"/>
                    </mxGeometry>
                </mxCell>
                <mxCell id="117" value="超级管理员" style="shape=partialRectangle;html=1;whiteSpace=wrap;connectable=0;fillColor=none;top=0;left=0;bottom=0;right=0;overflow=hidden;sketch=1;curveFitting=1;jiggle=2;fontStyle=0;align=center;" parent="115" vertex="1">
                    <mxGeometry x="83" width="84" height="57" as="geometry">
                        <mxRectangle width="84" height="57" as="alternateBounds"/>
                    </mxGeometry>
                </mxCell>
                <mxCell id="118" value="" style="shape=partialRectangle;html=1;whiteSpace=wrap;connectable=0;fillColor=none;top=0;left=0;bottom=0;right=0;overflow=hidden;sketch=1;curveFitting=1;jiggle=2;fontStyle=0;align=center;" parent="115" vertex="1">
                    <mxGeometry x="167" width="83" height="57" as="geometry">
                        <mxRectangle width="83" height="57" as="alternateBounds"/>
                    </mxGeometry>
                </mxCell>
            </root>
        </mxGraphModel>
    </diagram>
</mxfile>